<svg width="14" height="14" viewBox="0 0 14 14" fill="none" xmlns="http://www.w3.org/2000/svg">
<path d="M0.666016 2.00106C0.666016 1.60616 0.805612 1.28037 1.08479 1.02369C1.36398 0.767009 1.72692 0.638672 2.17362 0.638672C2.61234 0.638672 2.9673 0.76503 3.23851 1.01777C3.51769 1.2784 3.65729 1.618 3.65729 2.0366C3.65729 2.4157 3.52169 2.73161 3.25048 2.98435C2.97129 3.24498 2.60436 3.3753 2.14969 3.3753H2.13772C1.699 3.3753 1.34404 3.24498 1.07283 2.98435C0.801616 2.72372 0.666016 2.39595 0.666016 2.00106ZM0.821562 12.3671V4.45336H3.47781V12.3671H0.821562ZM4.94952 12.3671H7.60577V7.94818C7.60577 7.67175 7.63768 7.45851 7.70149 7.30845C7.81316 7.03992 7.98267 6.81285 8.21001 6.62726C8.43734 6.44166 8.72251 6.34886 9.06551 6.34886C9.95891 6.34886 10.4056 6.94515 10.4056 8.13773V12.3671H13.0618V7.82972C13.0618 6.66082 12.7827 5.77429 12.2243 5.1701C11.6659 4.56591 10.9281 4.26381 10.0108 4.26381C8.98175 4.26381 8.18009 4.70214 7.60577 5.57881V5.60251H7.5938L7.60577 5.57881V4.45336H4.94952C4.96547 4.70609 4.97345 5.49193 4.97345 6.81089C4.97345 8.12983 4.96547 9.98189 4.94952 12.3671Z" fill="white"/>
</svg>
