<svg width="17" height="16" viewBox="0 0 17 16" fill="none" xmlns="http://www.w3.org/2000/svg">
<path fill-rule="evenodd" clip-rule="evenodd" d="M4.7271 0.048C5.58511 0.00933333 5.85927 0 8.04385 0C10.2284 0 10.5026 0.00933333 11.3606 0.048C12.6677 0.107333 13.816 0.426 14.7377 1.34267C15.6594 2.25933 15.9798 3.40133 16.0394 4.70133C16.0783 5.55467 16.0877 5.82733 16.0877 8C16.0877 10.1727 16.0783 10.4453 16.0394 11.2987C15.9798 12.5987 15.6594 13.7407 14.7377 14.6573C13.816 15.574 12.6677 15.8927 11.3606 15.952C10.5026 15.9907 10.2284 16 8.04385 16C5.85927 16 5.58511 15.9907 4.7271 15.952C3.41998 15.8927 2.27172 15.574 1.35003 14.6573C0.428335 13.7407 0.107922 12.5987 0.0482631 11.2987C0.00938449 10.4453 0 10.1727 0 8C0 5.82733 0.00938449 5.55467 0.0482631 4.70133C0.107922 3.40133 0.428335 2.25933 1.35003 1.34267C2.27172 0.426 3.41998 0.107333 4.7271 0.048ZM11.2964 1.4883C10.4484 1.44964 10.1937 1.44164 8.04601 1.44164C5.89831 1.44164 5.64359 1.44964 4.79563 1.4883C3.87997 1.52964 3.03068 1.7123 2.37711 2.3623C1.72355 3.0123 1.53988 3.85697 1.49832 4.76764C1.45945 5.61097 1.4514 5.8643 1.4514 8.0003C1.4514 10.1363 1.45945 10.3896 1.49832 11.233C1.53988 12.1436 1.72355 12.9883 2.37711 13.6383C3.03068 14.2883 3.87997 14.471 4.79563 14.5123C5.64359 14.551 5.89831 14.559 8.04601 14.559C10.1937 14.559 10.4484 14.551 11.2964 14.5123C12.2121 14.471 13.0614 14.2883 13.7149 13.6383C14.3685 12.9883 14.5521 12.1436 14.5937 11.233C14.6326 10.3896 14.6406 10.1363 14.6406 8.0003C14.6406 5.8643 14.6326 5.61097 14.5937 4.76764C14.5521 3.85697 14.3685 3.0123 13.7149 2.3623C13.0614 1.7123 12.2121 1.52964 11.2964 1.4883ZM3.92291 7.99908C3.92291 5.73042 5.77232 3.89108 8.05342 3.89108C10.3345 3.89108 12.1839 5.73042 12.1839 7.99908C12.1839 10.2677 10.3345 12.1071 8.05342 12.1071C5.77232 12.1071 3.92291 10.2677 3.92291 7.99908ZM5.37437 7.99936C5.37437 9.47202 6.57491 10.666 8.05565 10.666C9.53638 10.666 10.7369 9.47202 10.7369 7.99936C10.7369 6.52669 9.53638 5.33269 8.05565 5.33269C6.57491 5.33269 5.37437 6.52669 5.37437 7.99936ZM13.302 3.72976C13.302 4.25996 12.8698 4.68976 12.3367 4.68976C11.8036 4.68976 11.3714 4.25996 11.3714 3.72976C11.3714 3.19957 11.8036 2.76976 12.3367 2.76976C12.8698 2.76976 13.302 3.19957 13.302 3.72976Z" fill="white"/>
</svg>
